<svg xmlns="http://www.w3.org/2000/svg" width="511.76" height="511.749" viewBox="0 0 511.76 511.749">
  <g id="cancel" transform="translate(2859 -2119)">
    <g id="Ellipse_10" data-name="Ellipse 10" transform="translate(-2836 2146)" fill="#fff" stroke="#707070" stroke-width="1">
      <ellipse cx="232.5" cy="229" rx="232.5" ry="229" stroke="none"/>
      <ellipse cx="232.5" cy="229" rx="232" ry="228.5" fill="none"/>
    </g>
    <g id="cancel-2" data-name="cancel" transform="translate(-2859 2118.995)">
      <g id="Group_82" data-name="Group 82">
        <path id="Path_162" data-name="Path 162" d="M436.9,74.869c-99.84-99.819-262.208-99.819-362.048,0-99.8,99.819-99.8,262.229,0,362.048a256.359,256.359,0,0,0,362.048,0C536.715,337.1,536.715,174.688,436.9,74.869ZM361.461,331.317a21.33,21.33,0,1,1-30.166,30.165l-75.413-75.435L180.49,361.46a21.33,21.33,0,0,1-30.166-30.165l75.392-75.413L150.3,180.469A21.33,21.33,0,0,1,180.468,150.3l75.413,75.413L331.294,150.3a21.33,21.33,0,0,1,30.165,30.165l-75.413,75.413Z"/>
      </g>
    </g>
  </g>
</svg>
