<svg id="plus" xmlns="http://www.w3.org/2000/svg" width="512" height="512" viewBox="0 0 512 512">
  <path id="Path_11" data-name="Path 11" d="M256,512C114.836,512,0,397.164,0,256S114.836,0,256,0,512,114.836,512,256,397.164,512,256,512Zm0-480C132.48,32,32,132.48,32,256S132.48,480,256,480,480,379.52,480,256,379.52,32,256,32Zm0,0" fill="#fff"/>
  <path id="Path_12" data-name="Path 12" d="M368,272H144a16,16,0,0,1,0-32H368a16,16,0,0,1,0,32Zm0,0" fill="#fff"/>
  <path id="Path_13" data-name="Path 13" d="M256,384a16.006,16.006,0,0,1-16-16V144a16,16,0,0,1,32,0V368A16.006,16.006,0,0,1,256,384Zm0,0" fill="#fff"/>
</svg>
